HIERARCHY
ROOT Hips
{
    OFFSET   0.000000   0.000000   0.000000
    CHANNELS 6 Xposition Yposition Zposition Zrotation Xrotation Yrotation
    JOINT Chest
    {
        OFFSET   0.000000   8.007230   0.000000
        CHANNELS 3 Zrotation Xrotation Yrotation
        JOINT Chest2
        {
            OFFSET   0.000000  22.077100   0.000000
            CHANNELS 3 Zrotation Xrotation Yrotation
            JOINT Neck
            {
                OFFSET   0.000000  23.254800  -0.000021
                CHANNELS 3 Zrotation Xrotation Yrotation
                JOINT Head
                {
                    OFFSET   0.000000  14.370000   1.956610
                    CHANNELS 3 Zrotation Xrotation Yrotation
                    End Site
                    {
                        OFFSET   0.000000  19.566000   0.000000
                    }
                }
            }
            JOINT LeftCollar
            {
                OFFSET   3.911900  19.017000  -0.467063
                CHANNELS 3 Zrotation Xrotation Yrotation
                JOINT LeftShoulder
                {
                    OFFSET  10.383700   0.000000   0.000000
                    CHANNELS 3 Zrotation Xrotation Yrotation
                    JOINT LeftElbow
                    {
                        OFFSET  26.662100   0.001529   0.000325
                        CHANNELS 3 Zrotation Xrotation Yrotation
                        JOINT LeftWrist
                        {
                            OFFSET  28.869000  -0.000011  -0.000096
                            CHANNELS 3 Zrotation Xrotation Yrotation
                            JOINT LeftFinger0
                            {
                                OFFSET   2.044650  -2.323460   3.252850
                                CHANNELS 3 Zrotation Xrotation Yrotation
                                JOINT LeftFinger01
                                {
                                    OFFSET   3.088130   0.000000   0.000000
                                    CHANNELS 3 Zrotation Xrotation Yrotation
                                    JOINT LeftFinger02
                                    {
                                        OFFSET   2.639460   0.000000   0.000000
                                        CHANNELS 3 Zrotation Xrotation Yrotation
                                        End Site
                                        {
                                            OFFSET   2.582190   0.000000   0.000000
                                        }
                                    }
                                }
                            }
                            JOINT LeftFinger1
                            {
                                OFFSET   8.364480   0.000000   3.252850
                                CHANNELS 3 Zrotation Xrotation Yrotation
                                JOINT LeftFinger11
                                {
                                    OFFSET   4.646930   0.000000   0.000000
                                    CHANNELS 3 Zrotation Xrotation Yrotation
                                    JOINT LeftFinger12
                                    {
                                        OFFSET   2.323460   0.000000   0.000000
                                        CHANNELS 3 Zrotation Xrotation Yrotation
                                        End Site
                                        {
                                            OFFSET   2.273050   0.000000   0.000000
                                        }
                                    }
                                }
                            }
                            JOINT LeftFinger2
                            {
                                OFFSET   8.364480   0.000016   1.078090
                                CHANNELS 3 Zrotation Xrotation Yrotation
                                JOINT LeftFinger21
                                {
                                    OFFSET   5.111620   0.000000   0.000000
                                    CHANNELS 3 Zrotation Xrotation Yrotation
                                    JOINT LeftFinger22
                                    {
                                        OFFSET   2.788160   0.000017   0.000000
                                        CHANNELS 3 Zrotation Xrotation Yrotation
                                        End Site
                                        {
                                            OFFSET   2.727660   0.000000   0.000000
                                        }
                                    }
                                }
                            }
                            JOINT LeftFinger3
                            {
                                OFFSET   7.899780   0.000015  -1.078090
                                CHANNELS 3 Zrotation Xrotation Yrotation
                                JOINT LeftFinger31
                                {
                                    OFFSET   4.646920   0.000000   0.000000
                                    CHANNELS 3 Zrotation Xrotation Yrotation
                                    JOINT LeftFinger32
                                    {
                                        OFFSET   2.323470   0.000000   0.000000
                                        CHANNELS 3 Zrotation Xrotation Yrotation
                                        End Site
                                        {
                                            OFFSET   2.273050   0.000000   0.000000
                                        }
                                    }
                                }
                            }
                            JOINT LeftFinger4
                            {
                                OFFSET   7.435090   0.000000  -3.252850
                                CHANNELS 3 Zrotation Xrotation Yrotation
                                JOINT LeftFinger41
                                {
                                    OFFSET   3.717550   0.000000   0.000000
                                    CHANNELS 3 Zrotation Xrotation Yrotation
                                    JOINT LeftFinger42
                                    {
                                        OFFSET   1.858760   0.000000   0.000000
                                        CHANNELS 3 Zrotation Xrotation Yrotation
                                        End Site
                                        {
                                            OFFSET   1.818440   0.000000   0.000000
                                        }
                                    }
                                }
                            }
                        }
                    }
                }
            }
            JOINT RightCollar
            {
                OFFSET  -3.911900  19.017000  -0.467062
                CHANNELS 3 Zrotation Xrotation Yrotation
                JOINT RightShoulder
                {
                    OFFSET -10.383700   0.000015   0.000000
                    CHANNELS 3 Zrotation Xrotation Yrotation
                    JOINT RightElbow
                    {
                        OFFSET -26.662100   0.001341   0.000385
                        CHANNELS 3 Zrotation Xrotation Yrotation
                        JOINT RightWrist
                        {
                            OFFSET -28.869000   0.000025  -0.000080
                            CHANNELS 3 Zrotation Xrotation Yrotation
                            JOINT RightFinger0
                            {
                                OFFSET  -2.044650  -2.323490   3.252850
                                CHANNELS 3 Zrotation Xrotation Yrotation
                                JOINT RightFinger01
                                {
                                    OFFSET  -3.088130   0.000000   0.000000
                                    CHANNELS 3 Zrotation Xrotation Yrotation
                                    JOINT RightFinger02
                                    {
                                        OFFSET  -2.639460   0.000000   0.000000
                                        CHANNELS 3 Zrotation Xrotation Yrotation
                                        End Site
                                        {
                                            OFFSET  -2.582190   0.000000   0.000000
                                        }
                                    }
                                }
                            }
                            JOINT RightFinger1
                            {
                                OFFSET  -8.364480   0.000000   3.252850
                                CHANNELS 3 Zrotation Xrotation Yrotation
                                JOINT RightFinger11
                                {
                                    OFFSET  -4.646930   0.000000   0.000000
                                    CHANNELS 3 Zrotation Xrotation Yrotation
                                    JOINT RightFinger12
                                    {
                                        OFFSET  -2.323470   0.000000   0.000000
                                        CHANNELS 3 Zrotation Xrotation Yrotation
                                        End Site
                                        {
                                            OFFSET  -2.273050   0.000000   0.000000
                                        }
                                    }
                                }
                            }
                            JOINT RightFinger2
                            {
                                OFFSET  -8.364480   0.000000   1.078090
                                CHANNELS 3 Zrotation Xrotation Yrotation
                                JOINT RightFinger21
                                {
                                    OFFSET  -5.111610   0.000000   0.000000
                                    CHANNELS 3 Zrotation Xrotation Yrotation
                                    JOINT RightFinger22
                                    {
                                        OFFSET  -2.788160   0.000000   0.000000
                                        CHANNELS 3 Zrotation Xrotation Yrotation
                                        End Site
                                        {
                                            OFFSET  -2.727660   0.000000   0.000000
                                        }
                                    }
                                }
                            }
                            JOINT RightFinger3
                            {
                                OFFSET  -7.899780   0.000000  -1.078090
                                CHANNELS 3 Zrotation Xrotation Yrotation
                                JOINT RightFinger31
                                {
                                    OFFSET  -4.646920   0.000000   0.000000
                                    CHANNELS 3 Zrotation Xrotation Yrotation
                                    JOINT RightFinger32
                                    {
                                        OFFSET  -2.323470   0.000000   0.000000
                                        CHANNELS 3 Zrotation Xrotation Yrotation
                                        End Site
                                        {
                                            OFFSET  -2.273050   0.000000   0.000000
                                        }
                                    }
                                }
                            }
                            JOINT RightFinger4
                            {
                                OFFSET  -7.435090   0.000000  -3.252850
                                CHANNELS 3 Zrotation Xrotation Yrotation
                                JOINT RightFinger41
                                {
                                    OFFSET  -3.717550   0.000000   0.000000
                                    CHANNELS 3 Zrotation Xrotation Yrotation
                                    JOINT RightFinger42
                                    {
                                        OFFSET  -1.858770   0.000000   0.000000
                                        CHANNELS 3 Zrotation Xrotation Yrotation
                                        End Site
                                        {
                                            OFFSET  -1.818440   0.000000   0.000000
                                        }
                                    }
                                }
                            }
                        }
                    }
                }
            }
        }
    }
    JOINT LeftHip
    {
        OFFSET   9.783010   0.000000   0.000000
        CHANNELS 3 Zrotation Xrotation Yrotation
        JOINT LeftKnee
        {
            OFFSET   0.000070 -41.789100   0.000028
            CHANNELS 3 Zrotation Xrotation Yrotation
            JOINT LeftAnkle
            {
                OFFSET   0.000087 -41.133200  -0.000100
                CHANNELS 3 Zrotation Xrotation Yrotation
                JOINT LeftToe
                {
                    OFFSET   0.000000  -6.358960  14.674500
                    CHANNELS 3 Zrotation Xrotation Yrotation
                    End Site
                    {
                        OFFSET   0.000000   0.000000   3.913200
                    }
                }
            }
        }
    }
    JOINT RightHip
    {
        OFFSET  -9.783020   0.000000   0.000000
        CHANNELS 3 Zrotation Xrotation Yrotation
        JOINT RightKnee
        {
            OFFSET   0.000044 -41.789100  -0.000870
            CHANNELS 3 Zrotation Xrotation Yrotation
            JOINT RightAnkle
            {
                OFFSET  -0.000090 -41.133200  -0.000245
                CHANNELS 3 Zrotation Xrotation Yrotation
                JOINT RightToe
                {
                    OFFSET   0.000000  -6.358960  14.674500
                    CHANNELS 3 Zrotation Xrotation Yrotation
                    End Site
                    {
                        OFFSET   0.000000   0.000000   3.913200
                    }
                }
            }
        }
    }
}
MOTION
Frames: 6
Frame Time:   0.016667
 -0.253349  89.528300   1.692870  -1.095900  -2.317370  -2.823990   0.948105   2.038440   0.071405   1.895470   4.077800   0.109122  -1.431350  -0.129461   0.001224  -2.351710  -0.261999   4.283370  -4.198790   1.104720   7.317430 -79.491500   5.415150   1.486610   0.361091   7.914470 -15.608000   8.407260  -2.788350  -2.191230  40.284800  33.223600 -49.366500 -31.728700  -0.002304   0.006281 -10.874100   0.013964   0.002835 -32.906700  -1.945390   3.002900 -26.965400  -0.007882   0.000641 -18.875800  -0.005631   0.001574 -24.274700  -4.185790   9.181590 -24.611600   0.001891   0.005420 -16.391300  -0.001382  -0.010784 -28.199600  -4.992240   9.219330 -37.401400  -0.000524   0.000847 -24.909300   0.002002   0.000156 -35.029500  -6.058250   8.560040 -53.226800   0.002691  -0.002355 -35.449100   0.001525   0.000949   9.420510   2.094420   6.089440  67.354600  -1.989740  -2.810560   2.973010  -2.391760  12.919800 -16.985600  -3.832730  -0.414302 -45.527400  45.517700  90.742200  20.851900  -0.004948  -0.006181   5.425960  -0.002893   0.000651  36.912500   0.008462   0.011249  30.207500   0.000493  -0.000609  21.145300   0.000200  -0.000491  32.438600  -3.689300  -5.771980  48.937400  -0.007526  -0.002027  32.592300   0.000134   0.001728  33.583800  -3.806700  -5.697240  50.660600  -0.007243   0.008643  33.739900   0.004168   0.009581  44.763000  -4.830770  -4.853540  67.451700  -0.000662   0.008726  44.922800   0.005939   0.007561   2.883060   3.738450  -0.167238  -0.070691   1.190220  11.836600  -2.905150  -2.935870  -0.126181  -0.000000   0.000000   0.000000   0.933841   2.820330  -3.315830  -0.579612   3.226980 -13.414700   1.076610  -3.490490   0.337114   0.000000   0.000000  -0.000000
 -0.252257  89.528300   1.669380  -1.093400  -2.373700  -2.798970   0.944567   2.062320   0.072037   1.888380   4.125570   0.110125  -1.438460  -0.129451   0.001229  -2.363520  -0.262002   4.272250  -4.197230   1.091750   7.313390 -79.481400   5.472420   1.458520   0.360091   7.882390 -15.571600   8.411410  -2.766880  -2.195900  40.285600  33.232700 -49.373500 -31.736900  -0.002307   0.006286 -10.874100   0.014100   0.002841 -32.925600  -1.927290   2.972920 -26.980000  -0.007888   0.000690 -18.886100  -0.005687   0.001574 -24.268800  -4.185740   9.181590 -24.605700   0.002029   0.005468 -16.387400  -0.001254  -0.010880 -28.200500  -4.988780   9.212830 -37.403500  -0.000524   0.000848 -24.910700   0.002147   0.000193 -35.031500  -6.053170   8.554600 -53.227900   0.002903  -0.002355 -35.449900   0.001640   0.001030   9.422590   2.073500   6.087100  67.373500  -1.963440  -2.810510   2.992150  -2.422110  12.932500 -16.973600  -3.849090  -0.348062 -45.451600  45.444500  90.636000  21.059500  -0.004948  -0.006196   5.529760  -0.002895   0.000646  36.916400   0.004879   0.006458  30.207500   0.000493  -0.000610  21.145300   0.000200  -0.000492  32.391400  -3.689080  -5.784910  48.867000  -0.007524  -0.002031  32.545400   0.000134   0.001724  33.550300  -3.806620  -5.709220  50.610800  -0.007235   0.008640  33.706700   0.004166   0.009571  44.732300  -4.836490  -4.864430  67.406800  -0.000664   0.008728  44.892900   0.005931   0.007552   2.877700   3.764540  -0.159082  -0.068802   1.211680  11.815100  -2.906230  -2.929870  -0.139964  -0.000000   0.000000   0.000000   0.945381   2.835880  -3.297670  -0.609744   3.292440 -13.383600   1.105010  -3.535150   0.266795  -0.000000   0.000000   0.000000
 -0.248978  89.528200   1.630090  -1.089920  -2.468010  -2.760090   0.938922   2.101050   0.073536   1.877040   4.203030   0.112698  -1.450020  -0.129385   0.001241  -2.382250  -0.262001   4.261120  -4.195340   1.076690   7.305680 -79.466300   5.554610   1.413150   0.359479   7.851080 -15.514600   8.421650  -2.737560  -2.205890  40.286500  33.241700 -49.380600 -31.748300  -0.002312   0.006295 -10.874100   0.014391   0.002847 -32.955400  -1.893210   2.917180 -27.002900  -0.007901   0.000791 -18.902100  -0.005799   0.001576 -24.262900  -4.185660   9.181590 -24.599700   0.002223   0.005570 -16.383400  -0.001042  -0.011083 -28.203800  -4.978210   9.192570 -37.418100  -0.000524   0.000849 -24.920500   0.002349   0.000254 -35.039400  -6.041060   8.535150 -53.235900   0.003201  -0.002357 -35.455100   0.001802   0.001143   9.426010   2.041880   6.079000  67.400500  -1.912400  -2.810400   3.018110  -2.452310  12.960800 -16.954300  -3.865450  -0.252357 -45.339700  45.335500  90.478900  21.388900  -0.004948  -0.006211   5.694450  -0.002897   0.000639  36.920300   0.001295   0.001667  30.207500   0.000493  -0.000613  21.145300   0.000200  -0.000496  32.319800  -3.688820  -5.804520  48.760300  -0.007515  -0.002042  32.474300   0.000134   0.001713  33.502000  -3.806500  -5.727220  50.538700  -0.007215   0.008632  33.658700   0.004161   0.009544  44.689100  -4.845440  -4.880660  67.343500  -0.000670   0.008732  44.850800   0.005908   0.007526   2.866590   3.808780  -0.150929  -0.063637   1.247630  11.779900  -2.907300  -2.921110  -0.153748  -0.000000   0.000000   0.000000   0.963491   2.851470  -3.267100  -0.659897   3.406070 -13.334300   1.145850  -3.603500   0.154449   0.000000   0.000000  -0.000000
 -0.242976  89.528100   1.598270  -1.088340  -2.543350  -2.734990   0.935006   2.128780   0.075838   1.869130   4.258530   0.116999  -1.459380  -0.122708   0.001261  -2.397510  -0.248490   4.268860  -4.194890   1.075100   7.295050 -79.457000   5.590040   1.380920   0.362251   7.868950 -15.475000   8.438390  -2.727650  -2.218910  40.276800  33.226400 -49.369000 -31.751600  -0.002319   0.006305 -10.874800   0.014796   0.002847 -32.971700  -1.854240   2.855470 -27.014600  -0.007916   0.000928 -18.910200  -0.005944   0.001579 -24.278900  -4.185670   9.177560 -24.615500   0.002307   0.005713 -16.393900  -0.000830  -0.011362 -28.210600  -4.957170   9.151940 -37.462800  -0.000524   0.000849 -24.950300   0.002435   0.000318 -35.081300  -6.021020   8.493250 -53.293100   0.003328  -0.002361 -35.493100   0.001871   0.001193   9.428400   2.025930   6.061330  67.413200  -1.852110  -2.804470   3.032500  -2.450900  13.000100 -16.943100  -3.856110  -0.207723 -45.284300  45.281200  90.401000  21.617200  -0.004950  -0.006210   5.808590  -0.002897   0.000636  36.915500   0.010152   0.013457  30.203600   0.000495  -0.000619  21.142600   0.000199  -0.000501  32.277500  -3.689050  -5.816070  48.697400  -0.007502  -0.002061  32.432400   0.000132   0.001694  33.479100  -3.809070  -5.737450  50.505100  -0.007184   0.008621  33.636400   0.004153   0.009502  44.671600  -4.851380  -4.889550  67.318200  -0.000681   0.008737  44.833900   0.005872   0.007483   2.851950   3.844370  -0.151158  -0.054702   1.276940  11.749900  -2.905400  -2.916470  -0.152955   0.000000   0.000000  -0.000000   0.975278   2.850260  -3.241730  -0.699604   3.509120 -13.301700   1.162480  -3.641100   0.075347   0.000000   0.000000  -0.000000
 -0.235847  89.528000   1.566600  -1.088350  -2.621230  -2.713180   0.931255   2.157160   0.078339   1.861550   4.315320   0.121684  -1.466960  -0.109716   0.001287  -2.410040  -0.221984   4.290730  -4.194300   1.073930   7.288090 -79.451400   5.614540   1.348390   0.364641   7.893850 -15.441400   8.455960  -2.725580  -2.233790  40.262600  33.204100 -49.352000 -31.754100  -0.002324   0.006311 -10.877000   0.015204   0.002846 -32.994500  -1.817630   2.796760 -27.031800  -0.007927   0.001063 -18.922200  -0.006075   0.001584 -24.310900  -4.185750   9.169490 -24.647000   0.002335   0.005856 -16.414900  -0.000703  -0.011641 -28.217900  -4.935350   9.109330 -37.531600  -0.000524   0.000849 -24.996100   0.002464   0.000356 -35.146500  -6.002020   8.448010 -53.385300   0.003370  -0.002368 -35.554600   0.001894   0.001209   9.431250   2.008800   6.043370  67.419400  -1.791860  -2.790300   3.039590  -2.443260  13.045600 -16.927800  -3.838800  -0.178616 -45.234400  45.232300  90.330700  21.826400  -0.004953  -0.006208   5.913220  -0.002896   0.000634  36.904100   0.028353   0.037712  30.194200   0.000497  -0.000629  21.136000   0.000196  -0.000508  32.243500  -3.689580  -5.825340  48.646900  -0.007483  -0.002085  32.398800   0.000130   0.001669  33.463500  -3.813120  -5.745490  50.482400  -0.007145   0.008607  33.621300   0.004142   0.009448  44.662300  -4.856550  -4.896300  67.305000  -0.000696   0.008743  44.825100   0.005825   0.007429   2.836090   3.883700  -0.152724  -0.044584   1.306130  11.727500  -2.900760  -2.913760  -0.151541   0.000000   0.000000   0.000000   0.988133   2.849050  -3.216690  -0.739326   3.612250 -13.269100   1.176980  -3.679960   0.000947   0.000000   0.000000   0.000000
 -0.229309  89.528000   1.535630  -1.090560  -2.705930  -2.692380   0.927449   2.190020   0.080029   1.853870   4.381050   0.124684  -1.470570  -0.095194   0.001319  -2.415980  -0.192210   4.328270  -4.190580   1.070970   7.292100 -79.452500   5.640500   1.311130   0.360887   7.905630 -15.416500   8.470100  -2.731850  -2.248550  40.254600  33.191400 -49.341900 -31.760800  -0.002321   0.006307 -10.881500   0.015507   0.002846 -33.040700  -1.794150   2.754740 -27.068500  -0.007925   0.001162 -18.947900  -0.006124   0.001590 -24.355000  -4.186440   9.158390 -24.690500   0.001759   0.005957 -16.443900  -0.000788  -0.011844 -28.225000  -4.921260   9.080530 -37.619600  -0.000523   0.000849 -25.054700   0.001865   0.000331 -35.212800  -5.994580   8.416350 -53.481300   0.002490  -0.002375 -35.618600   0.001416   0.000870   9.438200   1.983690   6.033960  67.421400  -1.752660  -2.763060   3.034830  -2.415670  13.089900 -16.900400  -3.820650  -0.159645 -45.164800  45.163800  90.232600  22.018900  -0.004951  -0.006214   6.009460  -0.002890   0.000633  36.887200   0.052512   0.069957  30.180400   0.000497  -0.000640  21.126300   0.000192  -0.000518  32.215700  -3.690180  -5.832940  48.605500  -0.007461  -0.002114  32.371200   0.000127   0.001639  33.450100  -3.815610  -5.752120  50.462900  -0.007098   0.008593  33.608300   0.004127   0.009385  44.658300  -4.861130  -4.901520  67.299600  -0.000711   0.008750  44.821500   0.005772   0.007368   2.823070   3.931710  -0.165825  -0.035462   1.335170  11.721900  -2.893320  -2.912880  -0.150192  -0.000000   0.000000  -0.000000   1.007400   2.871700  -3.193590  -0.779477   3.698630 -13.233000   1.197460  -3.732820  -0.071830  -0.000000   0.000000  -0.000000
